<?xml version="1.0" encoding="UTF-8" standalone="no"?>
<!DOCTYPE svg PUBLIC "-//W3C//DTD SVG 1.1//EN" "http://www.w3.org/Graphics/SVG/1.1/DTD/svg11.dtd">
<svg width="100%" height="100%" viewBox="0 0 656 394" version="1.1" xmlns="http://www.w3.org/2000/svg" xmlns:xlink="http://www.w3.org/1999/xlink" xml:space="preserve" xmlns:serif="http://www.serif.com/" style="fill-rule:evenodd;clip-rule:evenodd;stroke-linejoin:round;stroke-miterlimit:2;">
    <g transform="matrix(1,0,0,1,-632.26,-343.356)">
        <g transform="matrix(1,0,0,1,-262.192,-131.096)">
            <path d="M1549.93,736.644L1418.84,736.644L1418.84,867.74L1549.93,867.74L1549.93,736.644ZM1025.55,736.644L894.452,736.644L894.452,867.74L1025.55,867.74L1025.55,736.644L1156.64,736.644L1156.64,605.548L1287.74,605.548L1287.74,671.096L1418.84,671.096L1418.84,605.548L1549.93,605.548L1549.93,474.452L1418.84,474.452L1418.84,540L1287.74,540L1287.74,474.452L894.452,474.452L894.452,605.548L1025.55,605.548L1025.55,736.644Z" style="fill:rgb(48,48,48);"/>
        </g>
    </g>
</svg>
